<svg width="230" height="180" viewBox="0 0 230 180" fill="none" xmlns="http://www.w3.org/2000/svg">
<g id="Forget Password">
<path id="Vector" d="M110.522 149.464H40.7442L36.9251 37.2367H106.703L110.522 149.464Z" fill="#CCCCCC"/>
<path id="Vector_2" d="M114.006 145.979H44.226L40.4042 33.7522H110.182L114.006 145.979Z" fill="#2C4360"/>
<path id="Vector_3" d="M90.6251 79.9327C98.096 72.3325 97.7777 59.9046 89.9143 52.1741C82.0509 44.4436 69.6201 44.338 62.1492 51.9382C54.6784 59.5383 54.9966 71.9663 62.86 79.6967C70.7234 87.4272 83.1543 87.5328 90.6251 79.9327Z" fill="#2C4360"/>
<path id="Vector_4" d="M92.5912 65.9413C92.6907 68.6155 92.1065 71.2709 90.8938 73.6564C89.5857 76.2271 87.5872 78.3825 85.1226 79.8808C82.6579 81.379 79.8246 82.1609 76.9404 82.1386C73.9879 82.1221 71.0916 81.3297 68.5417 79.841C65.9919 78.3523 63.8782 76.2195 62.4124 73.6564C61.0473 71.3072 60.2849 68.6567 60.1931 65.9413C60.0159 61.821 61.4825 57.7991 64.2702 54.7601C67.0579 51.7211 70.9385 49.9139 75.0585 49.736C75.322 49.736 75.5856 49.7202 75.8492 49.7228C80.1894 49.756 84.3501 51.4595 87.4676 54.4795C90.5851 57.4995 92.4199 61.6041 92.5912 65.9413Z" fill="white"/>
<path id="Vector_5" d="M90.8859 73.6564C89.5769 76.2269 87.5779 78.3821 85.1129 79.8803C82.6478 81.3784 79.8143 82.1604 76.9299 82.1386C73.9777 82.1221 71.0817 81.3298 68.5323 79.8411C65.9829 78.3523 63.8697 76.2195 62.4045 73.6564C66.56 70.8217 71.478 69.3152 76.5081 69.3362C81.6188 69.3476 86.6153 70.8489 90.8859 73.6564Z" fill="#2C4360"/>
<path id="Vector_6" d="M81.4387 65.5356C84.1858 62.7409 84.0691 58.1714 81.1781 55.3292C78.2871 52.4871 73.7165 52.4485 70.9694 55.2432C68.2223 58.0378 68.3389 62.6074 71.23 65.4495C74.121 68.2917 78.6916 68.3302 81.4387 65.5356Z" fill="#2C4360"/>
<path id="Vector_7" d="M99.987 105.337H55.4752L55.1747 96.4908H99.6866L99.987 105.337Z" fill="white"/>
<path id="Vector_8" d="M100.527 121.147H56.0103L55.7098 112.301H100.227L100.527 121.147Z" fill="white"/>
<path id="Vector_9" d="M83.3478 113.521L72.6205 114.995C72.4234 115.017 72.2433 115.117 72.1198 115.272C71.9962 115.427 71.9393 115.625 71.9616 115.822C71.9603 115.841 71.9603 115.859 71.9616 115.878L73.3875 123.068C73.4332 123.279 73.5563 123.465 73.7325 123.589C73.9086 123.714 74.125 123.768 74.339 123.74L85.0663 122.267C85.2644 122.242 85.4445 122.139 85.567 121.982C85.6896 121.824 85.7446 121.624 85.72 121.426V121.379L84.3125 114.188C84.2672 113.975 84.1421 113.787 83.9627 113.663C83.7833 113.539 83.5634 113.488 83.3478 113.521ZM80.2667 120.804L78.3004 121.068L78.108 118.748C77.9076 118.659 77.7312 118.524 77.5936 118.354C77.4561 118.183 77.3613 117.982 77.3173 117.767C77.2492 117.45 77.3097 117.119 77.4857 116.846C77.6616 116.573 77.9385 116.381 78.2556 116.312L78.3795 116.291C78.7287 116.246 79.0822 116.333 79.3698 116.536C79.6575 116.74 79.8581 117.044 79.9319 117.388C79.975 117.595 79.9622 117.81 79.8951 118.011C79.828 118.212 79.7088 118.392 79.5498 118.532L80.2667 120.804Z" fill="#D1D3D4"/>
<path id="Vector_10" d="M82.2856 113.131C82.0961 113.155 81.9046 113.107 81.7482 112.998C81.5919 112.888 81.4819 112.724 81.4395 112.538L81.3025 111.834C81.106 110.877 80.57 110.024 79.7934 109.431C79.0168 108.839 78.0521 108.547 77.0774 108.61C76.5849 108.638 76.104 108.772 75.6678 109.002C75.2316 109.232 74.8504 109.554 74.55 109.946C74.2497 110.337 74.0375 110.789 73.9278 111.27C73.8181 111.751 73.8136 112.25 73.9146 112.733L74.0701 113.545C74.0894 113.631 74.0913 113.719 74.0758 113.806C74.0602 113.892 74.0276 113.975 73.9797 114.048C73.9318 114.122 73.8696 114.185 73.7969 114.235C73.7242 114.284 73.6423 114.318 73.5561 114.336H73.4955C73.3059 114.362 73.1132 114.316 72.9565 114.206C72.7999 114.096 72.691 113.93 72.6521 113.742L72.5177 113.057C72.3862 112.435 72.3786 111.794 72.4952 111.169C72.6118 110.544 72.8503 109.948 73.1971 109.416C73.5439 108.883 73.9922 108.424 74.5165 108.065C75.0407 107.705 75.6306 107.453 76.2524 107.322L76.4501 107.285C77.8449 107.05 79.2766 107.361 80.4477 108.155C81.6188 108.948 82.4393 110.162 82.7389 111.544L82.8971 112.351C82.9138 112.436 82.9135 112.524 82.896 112.61C82.8786 112.695 82.8443 112.776 82.7953 112.848C82.7463 112.92 82.6834 112.982 82.6104 113.03C82.5374 113.077 82.4556 113.11 82.3699 113.126L82.2856 113.131Z" fill="#D1D3D4"/>
<path id="Vector_11" d="M93.179 133.535H64.202L64.0096 127.776H92.984L93.179 133.535Z" fill="#D1D3D4"/>
<path id="Vector_12" d="M79.1992 100.914C79.208 101.118 79.1765 101.321 79.1065 101.513C79.0366 101.704 78.9294 101.88 78.7913 102.03C78.6532 102.18 78.4869 102.302 78.3018 102.387C78.1166 102.473 77.9164 102.521 77.7126 102.53H77.6362C77.2027 102.527 76.7871 102.357 76.4754 102.055C76.1638 101.754 75.9801 101.344 75.9625 100.911C75.954 100.708 75.9858 100.504 76.0559 100.313C76.1261 100.122 76.2333 99.9461 76.3713 99.7963C76.5094 99.6465 76.6757 99.5253 76.8606 99.4398C77.0455 99.3543 77.2455 99.3061 77.4491 99.298H77.5229C77.9564 99.3003 78.3723 99.4694 78.6844 99.7703C78.9966 100.071 79.1809 100.481 79.1992 100.914Z" fill="#2C4360"/>
<path id="Vector_13" d="M72.2119 100.914C72.2211 101.117 72.1902 101.32 72.1208 101.511C72.0514 101.703 71.945 101.878 71.8077 102.028C71.6704 102.178 71.5048 102.3 71.3204 102.386C71.1361 102.472 70.9365 102.521 70.7333 102.53H70.649C70.2159 102.526 69.8009 102.356 69.4899 102.054C69.1788 101.753 68.9955 101.344 68.9779 100.911C68.9615 100.5 69.1092 100.099 69.3885 99.7961C69.6677 99.4936 70.0557 99.3144 70.4671 99.298H70.5409C70.9741 99.2997 71.3898 99.4688 71.7012 99.7699C72.0126 100.071 72.1956 100.481 72.2119 100.914Z" fill="#2C4360"/>
<path id="Vector_14" d="M86.1627 100.914C86.1716 101.118 86.1401 101.321 86.0701 101.513C86.0001 101.704 85.893 101.88 85.7549 102.03C85.6168 102.18 85.4504 102.302 85.2653 102.387C85.0802 102.473 84.88 102.521 84.6762 102.53H84.5998C84.1663 102.527 83.7506 102.357 83.4393 102.056C83.1279 101.754 82.945 101.344 82.9287 100.911C82.9217 100.708 82.9548 100.505 83.0261 100.315C83.0974 100.124 83.2055 99.95 83.3443 99.8014C83.4831 99.6528 83.6498 99.533 83.835 99.4489C84.0201 99.3648 84.22 99.318 84.4232 99.3112H84.497C84.927 99.3141 85.3396 99.482 85.6495 99.7801C85.9595 100.078 86.1432 100.484 86.1627 100.914Z" fill="#2C4360"/>
<path id="Vector_15" d="M93.1263 100.914C93.1442 101.324 92.9985 101.725 92.7213 102.028C92.444 102.331 92.0579 102.511 91.6477 102.53H91.5739C91.1408 102.526 90.7258 102.356 90.4148 102.054C90.1037 101.753 89.9204 101.344 89.9028 100.911C89.8944 100.707 89.9262 100.504 89.9965 100.312C90.0668 100.121 90.1742 99.9453 90.3126 99.7954C90.4509 99.6455 90.6175 99.5244 90.8027 99.4391C90.9879 99.3537 91.1882 99.3058 91.392 99.298H91.4658C91.8969 99.3031 92.3097 99.4736 92.6187 99.7743C92.9277 100.075 93.1094 100.483 93.1263 100.914Z" fill="#2C4360"/>
<path id="Vector_16" d="M151.773 57.6804C152.427 58.7348 152.973 59.7338 153.534 60.7802C154.095 61.8266 154.588 62.8889 155.097 63.9432C156.109 66.1225 156.947 68.3789 157.601 70.691C157.691 70.981 157.754 71.292 157.828 71.5898L157.936 72.0485L157.991 72.2752L158.054 72.6468C158.165 73.4941 158.113 74.3546 157.901 75.1825C157.563 76.4681 157.048 77.7004 156.37 78.8437C155.157 80.9214 153.691 82.8409 152.005 84.5582L149.936 82.9978C150.975 81.0881 151.899 79.1182 152.704 77.0988C153.062 76.2097 153.314 75.2817 153.455 74.3338C153.5 74.0441 153.486 73.7483 153.415 73.4639L153.218 72.8629C153.141 72.6178 153.068 72.3727 152.973 72.1223C152.226 70.0948 151.362 68.1128 150.384 66.1863C149.401 64.22 148.344 62.2536 147.287 60.3874L151.773 57.6804Z" fill="#F9B499"/>
<path id="Vector_17" d="M150.463 82.3231L148.202 83.5171L150.796 86.5562C150.796 86.5562 152.419 85.4597 152.493 83.7886L150.463 82.3231Z" fill="#F9B499"/>
<path id="Vector_18" d="M145.171 85.3912L147.946 87.5974L150.796 86.5563L148.202 83.5198L145.171 85.3912Z" fill="#F9B499"/>
<path id="Vector_19" d="M134.57 51.7129V48.4998L138.835 48.9927C138.835 48.9927 138.766 51.7629 136.378 52.5801L134.57 51.7129Z" fill="#F9B499"/>
<path id="Vector_20" d="M135.798 46.1697L138.8 47.0342L138.856 49.0059L134.591 48.4892L135.798 46.1697Z" fill="#F9B499"/>
<path id="Vector_21" d="M138.8 47.0342L135.798 46.1697L135.213 47.2899C135.246 48.1728 135.522 49.0294 136.012 49.7649C136.501 50.5004 137.184 51.0861 137.986 51.4572C138.502 50.737 138.804 49.8852 138.856 49.0006L138.8 47.0342Z" fill="#F4A48E"/>
<path id="Vector_22" d="M143.263 46.573C142.772 49.1034 142.472 52.6065 144.246 54.2934C144.246 54.2934 143.558 56.8581 138.84 56.8581C133.677 56.8581 136.36 54.6071 136.36 54.6071C138.505 53.9402 138.487 51.4968 137.997 49.5304L143.263 46.573Z" fill="#F9B499"/>
<path id="Vector_23" d="M145.205 55.9829C145.666 55.3345 145.645 53.2759 145.155 52.9122C144.364 52.327 140.97 52.1899 136.405 53.2416C136.895 55.237 135.838 56.2781 135.838 56.2781L145.205 55.9829Z" fill="#3E79F7"/>
<path id="Vector_24" d="M140.308 173.057H135.991L135.561 165.049H139.878L140.308 173.057Z" fill="#F9B499"/>
<path id="Vector_25" d="M165.822 171.455L161.541 172.187L157.237 164.731L161.523 164L165.822 171.455Z" fill="#F9B499"/>
<path id="Vector_26" d="M161.552 171.858L165.353 171.038C165.419 171.024 165.488 171.032 165.548 171.062C165.608 171.093 165.657 171.143 165.685 171.204L167.002 174.064C167.032 174.122 167.05 174.184 167.055 174.249C167.06 174.313 167.052 174.378 167.032 174.44C167.012 174.501 166.98 174.558 166.938 174.607C166.896 174.656 166.844 174.697 166.786 174.726C166.74 174.749 166.69 174.765 166.639 174.773C165.321 175.037 164.649 175.097 162.983 175.456C161.955 175.68 159.636 176.247 158.218 176.55C156.8 176.853 156.309 175.495 156.866 175.232C159.346 174.096 160.379 173.097 161.051 172.169C161.175 172.008 161.353 171.897 161.552 171.858Z" fill="#3E79F7"/>
<path id="Vector_27" d="M136.457 172.649H140.232C140.3 172.649 140.367 172.672 140.42 172.714C140.474 172.757 140.511 172.816 140.527 172.883L141.209 175.954C141.227 176.016 141.231 176.082 141.223 176.146C141.215 176.21 141.194 176.272 141.161 176.328C141.129 176.384 141.086 176.434 141.034 176.473C140.983 176.512 140.924 176.541 140.862 176.558C140.814 176.571 140.765 176.576 140.717 176.573C139.357 176.55 137.39 176.471 135.68 176.471C133.677 176.471 131.95 176.579 129.602 176.579C128.181 176.579 127.788 175.145 128.384 175.013C131.086 174.422 133.297 174.359 135.632 172.904C135.879 172.746 136.164 172.657 136.457 172.649Z" fill="#3E79F7"/>
<path id="Vector_28" d="M150.427 55.0894C153.666 55.8327 156.325 64.1014 156.325 64.1014L149.852 69.0594C148.173 67.2626 146.988 65.0613 146.412 62.6701C145.268 58.3236 147.116 54.3171 150.427 55.0894Z" fill="#3E79F7"/>
<path id="Vector_29" d="M133.392 64.9476C132.585 65.8174 131.779 66.595 130.933 67.4042C130.516 67.7969 130.095 68.1949 129.662 68.5692L129.001 69.1438L128.837 69.2862L128.558 69.5129C128.269 69.7423 127.95 69.9312 127.609 70.0743C127.23 70.2342 126.822 70.3176 126.41 70.3194C126.058 70.3199 125.71 70.2583 125.379 70.1376C124.961 69.9779 124.585 69.7235 124.282 69.3942C123.978 69.0649 123.755 68.6698 123.629 68.2397C123.554 68.0017 123.506 67.7558 123.487 67.507C123.461 67.2159 123.461 66.923 123.487 66.6319C123.507 66.4196 123.538 66.2084 123.579 65.9993C123.715 65.3293 123.905 64.6716 124.149 64.0329C124.371 63.4268 124.625 62.8329 124.91 62.2537C125.227 61.6316 125.527 61.173 125.825 60.6537C127.042 58.6583 128.432 56.7735 129.979 55.0209C131.508 53.278 133.194 51.6792 135.016 50.2448L136.824 52.1057C135.556 53.8058 134.307 55.6298 133.152 57.4248C132.002 59.2103 130.953 61.0583 130.008 62.9601C129.797 63.4214 129.515 63.9433 129.383 64.3176C129.206 64.7479 129.054 65.1879 128.927 65.6355C128.803 66.041 128.709 66.4551 128.645 66.8744C128.645 66.9403 128.645 67.0062 128.645 67.0694V67.0272C128.638 66.917 128.616 66.8081 128.582 66.703C128.477 66.3542 128.282 66.0389 128.018 65.7884C127.783 65.5716 127.507 65.404 127.206 65.2955C126.942 65.1957 126.663 65.1448 126.381 65.1452C126.11 65.1407 125.841 65.1919 125.59 65.2955C125.505 65.3299 125.423 65.3713 125.345 65.4194L125.53 65.248L126.125 64.7209L127.301 63.6191C128.076 62.8863 128.859 62.1061 129.594 61.3786L133.392 64.9476Z" fill="#F9B499"/>
<path id="Vector_30" opacity="0.2" d="M147.651 61.1519C149.412 62.8915 149.986 66.0651 150.108 68.8169L149.823 69.0594C148.148 67.2611 146.968 65.06 146.397 62.6701C146.333 62.4065 146.273 62.1798 146.23 61.8978L147.651 61.1519Z" fill="black"/>
<path id="Vector_31" d="M129.955 58.516C129.249 62.251 128.806 69.9213 130.856 85.1065H149.362C149.488 82.273 147.707 68.4242 150.442 55.0577C148.398 54.6625 146.33 54.3984 144.251 54.267C141.632 54.1167 139.007 54.1167 136.389 54.267C135.524 54.3461 134.668 54.4752 133.932 54.607C132.951 54.779 132.046 55.2448 131.336 55.9429C130.626 56.6409 130.144 57.5382 129.955 58.516Z" fill="#3E79F7"/>
<path id="Vector_32" opacity="0.2" d="M132.786 64.0513L129.446 63.2605C129.341 65.2875 129.333 67.7915 129.481 70.9045C131.017 69.1437 132.983 66.4235 132.786 64.0513Z" fill="black"/>
<path id="Vector_33" d="M144.905 42.8775C144.019 46.1907 143.666 48.1755 141.623 49.5515C138.55 51.6443 134.718 49.2457 134.62 45.7479C134.512 42.5849 135.98 37.698 139.533 37.0285C140.314 36.8818 141.119 36.9365 141.873 37.1873C142.627 37.4381 143.305 37.8768 143.842 38.462C144.38 39.0472 144.759 39.7596 144.945 40.5322C145.131 41.3047 145.117 42.1118 144.905 42.8775Z" fill="#F9B499"/>
<path id="Vector_34" d="M137.15 43.0014C136.984 42.5585 136.223 39.1319 136.94 38.2568C137.657 37.3817 145.838 38.0117 147.048 39.2005C149.056 41.1668 147.662 42.9355 145.466 45.2102C143.816 46.9209 143.753 48.8477 142.917 49.1429C141.444 49.6332 139.193 49.1719 138.74 47.6141C138.286 46.0563 137.15 43.0014 137.15 43.0014Z" fill="#2C4360"/>
<path id="Vector_35" d="M146.054 35.2889C143.155 34.0605 137.746 35.4233 134.815 34.7142C134.778 35.8034 135.136 36.8694 135.823 37.7149C136.511 38.5605 137.481 39.1285 138.555 39.3138C140.988 39.7786 143.459 40.0072 145.935 39.9965C149.14 39.8515 148.505 36.3379 146.054 35.2889Z" fill="#2C4360"/>
<path id="Vector_36" d="M138.724 43.1384C138.656 43.9898 138.31 44.7953 137.741 45.4316C136.984 46.2646 136.196 45.7427 136.065 44.7358C135.946 43.8211 136.191 42.2791 137.119 41.8363C138.047 41.3935 138.787 42.1104 138.724 43.1384Z" fill="#F9B499"/>
<path id="Vector_37" d="M137.417 85.1381C137.417 85.1381 141.347 111.544 143.497 121.442C145.851 132.278 158.5 168.128 158.5 168.128L164.686 166.786C164.686 166.786 155.84 137.565 153.879 122.414C152.356 110.777 149.364 85.1197 149.364 85.1197L137.417 85.1381Z" fill="#2C4360"/>
<path id="Vector_38" opacity="0.3" d="M139.897 94.5403C144.433 95.4312 143.951 112.345 143.405 121.049C142.087 114.897 140.182 103.062 138.874 94.6641C139.191 94.5081 139.552 94.4644 139.897 94.5403Z" fill="black"/>
<path id="Vector_39" d="M130.846 85.1382C130.846 85.1382 130.353 110.97 130.746 121.513C131.138 132.478 134.963 168.376 134.963 168.376H140.835C140.835 168.376 141.046 133.116 141.328 122.349C141.613 110.614 143.028 85.1302 143.028 85.1302L130.846 85.1382Z" fill="#2C4360"/>
<path id="Vector_40" d="M137.201 59.6732C138.856 64.1541 129.122 69.4047 129.122 69.4047L124.905 63.9986C124.905 63.9986 127.741 58.3869 131.181 55.8617C135.429 52.7461 135.935 56.2729 137.201 59.6732Z" fill="#3E79F7"/>
<path id="Vector_41" d="M175.342 25.7603C185.137 25.7603 193.078 20.6999 193.078 14.4577C193.078 8.21548 185.137 3.15515 175.342 3.15515C165.547 3.15515 157.606 8.21548 157.606 14.4577C157.606 20.6999 165.547 25.7603 175.342 25.7603Z" fill="#2C4360"/>
<path id="Vector_42" d="M168.945 20.1485C167.775 20.147 166.643 19.7326 165.749 18.9785C164.855 18.2244 164.255 17.1788 164.056 16.026C163.861 14.7787 164.142 13.5035 164.844 12.4544C165.547 11.4052 166.618 10.659 167.846 10.3642C168.853 10.1329 169.907 10.2228 170.861 10.6214C171.814 11.0199 172.619 11.707 173.162 12.5862L184.548 10.2377C184.986 10.1416 185.443 10.2142 185.829 10.441C186.215 10.6677 186.502 11.0319 186.631 11.4607C186.69 11.6793 186.706 11.9076 186.677 12.1323C186.648 12.357 186.574 12.5737 186.461 12.7698C186.347 12.9659 186.196 13.1376 186.016 13.2748C185.835 13.4121 185.63 13.5122 185.41 13.5694L185.318 13.5931L185.025 13.6511C184.981 13.6588 184.94 13.6765 184.903 13.7031C184.867 13.7296 184.838 13.7641 184.817 13.804C184.798 13.8452 184.788 13.8902 184.788 13.9358C184.788 13.9814 184.798 14.0264 184.817 14.0676L185.02 14.5947C185.086 14.764 185.091 14.9507 185.036 15.1234C184.98 15.2962 184.867 15.4446 184.714 15.5436C184.593 15.6181 184.491 15.7193 184.415 15.8395C184.339 15.9596 184.292 16.0956 184.277 16.2369C184.263 16.3987 184.198 16.5519 184.091 16.6745C183.985 16.7971 183.842 16.8829 183.684 16.9196L183.452 16.9696C183.292 16.9987 183.126 16.9763 182.98 16.9058C182.833 16.8353 182.712 16.7201 182.635 16.5769C182.571 16.4677 182.486 16.3722 182.385 16.2961C182.284 16.22 182.169 16.1647 182.046 16.1336C181.923 16.1024 181.796 16.096 181.671 16.1146C181.545 16.1333 181.425 16.1766 181.317 16.2421C181.192 16.3169 181.086 16.4187 181.006 16.5401C180.927 16.6615 180.875 16.7993 180.856 16.9433C180.843 17.1045 180.779 17.2573 180.673 17.3797C180.568 17.502 180.426 17.5874 180.268 17.6233L180.036 17.6708C179.876 17.7005 179.711 17.6784 179.565 17.6078C179.418 17.5371 179.298 17.4216 179.222 17.278C179.147 17.1566 179.047 17.0526 178.929 16.973C178.811 16.8935 178.677 16.8402 178.536 16.8168C178.348 16.7921 178.175 16.7005 178.049 16.5587C177.922 16.4169 177.851 16.2343 177.848 16.0445V15.4567C177.847 15.4168 177.837 15.3778 177.82 15.3416C177.804 15.3055 177.78 15.273 177.75 15.2461C177.721 15.2192 177.687 15.1983 177.649 15.1847C177.612 15.1711 177.572 15.165 177.532 15.1667C177.516 15.1641 177.5 15.1641 177.485 15.1667L173.855 15.9127C173.708 16.918 173.256 17.8538 172.559 18.5931C171.862 19.3324 170.955 19.8396 169.96 20.0457C169.626 20.114 169.286 20.1485 168.945 20.1485ZM167.962 10.807C166.847 11.0674 165.873 11.7405 165.234 12.6908C164.596 13.6411 164.342 14.7981 164.522 15.9285C164.723 16.9739 165.29 17.9136 166.121 18.5793C166.951 19.245 167.992 19.5931 169.056 19.5614C170.12 19.5297 171.138 19.1202 171.928 18.4062C172.717 17.6922 173.227 16.7204 173.365 15.6649V15.4883L177.371 14.6765C177.475 14.6513 177.582 14.6472 177.687 14.6646C177.792 14.6819 177.893 14.7203 177.983 14.7774C178.072 14.8345 178.15 14.9092 178.21 14.9969C178.27 15.0846 178.312 15.1836 178.333 15.288C178.344 15.341 178.351 15.3947 178.354 15.4488V16.0102C178.356 16.0766 178.38 16.1406 178.422 16.1914C178.465 16.2423 178.524 16.2769 178.589 16.2896C178.804 16.3205 179.009 16.4 179.189 16.5219C179.369 16.6438 179.519 16.805 179.628 16.9934C179.654 17.0464 179.695 17.0899 179.747 17.1178C179.799 17.1457 179.859 17.1566 179.917 17.1489L180.142 17.1014C180.2 17.0864 180.253 17.0525 180.29 17.0048C180.328 16.9572 180.349 16.8985 180.35 16.8379C180.381 16.5321 180.508 16.2441 180.713 16.0155C180.919 15.7868 181.191 15.6293 181.492 15.5656C181.792 15.502 182.105 15.5355 182.386 15.6614C182.666 15.7872 182.899 15.9989 183.051 16.2659C183.077 16.3184 183.118 16.3619 183.169 16.3902C183.22 16.4185 183.278 16.4303 183.336 16.424L183.573 16.3766C183.632 16.3621 183.683 16.3281 183.72 16.2802C183.756 16.2322 183.775 16.1732 183.774 16.113C183.798 15.8975 183.872 15.6905 183.989 15.5078C184.106 15.3251 184.263 15.1715 184.448 15.0587C184.502 15.019 184.542 14.9626 184.56 14.8983C184.579 14.8339 184.576 14.7651 184.551 14.7028L184.348 14.1756C184.31 14.0786 184.292 13.975 184.294 13.8708C184.297 13.7667 184.32 13.664 184.362 13.5687C184.404 13.4735 184.464 13.3874 184.54 13.3156C184.615 13.2438 184.704 13.1876 184.801 13.1503C184.843 13.1352 184.885 13.1229 184.928 13.1134L185.228 13.0501C185.548 12.9818 185.828 12.7894 186.006 12.5151C186.184 12.2408 186.245 11.907 186.177 11.5872C186.179 11.5723 186.179 11.5573 186.177 11.5424C186.082 11.2327 185.873 10.9706 185.592 10.8092C185.311 10.6477 184.98 10.5989 184.664 10.6726L172.959 13.1028L172.87 12.9526C172.4 12.115 171.67 11.4532 170.791 11.0675C169.912 10.6818 168.93 10.5931 167.996 10.8149L167.962 10.807ZM168.945 18.3166C168.248 18.3102 167.574 18.0718 167.028 17.639C166.482 17.2062 166.096 16.6037 165.931 15.927C165.766 15.2502 165.832 14.5377 166.117 13.9023C166.403 13.2668 166.892 12.7447 167.507 12.4185C168.123 12.0923 168.829 11.9806 169.515 12.1011C170.201 12.2217 170.828 12.5676 171.295 13.084C171.763 13.6005 172.044 14.2581 172.096 14.9528C172.148 15.6475 171.967 16.3396 171.581 16.9196C171.355 17.2665 171.063 17.5655 170.722 17.7993C170.38 18.0332 169.996 18.1973 169.591 18.2823C169.381 18.3192 169.168 18.3351 168.956 18.3297L168.945 18.3166ZM168.945 12.5177C168.762 12.518 168.579 12.5356 168.399 12.5704C167.708 12.7176 167.104 13.1333 166.719 13.7263C166.334 14.3192 166.2 15.0407 166.348 15.7321C166.495 16.4235 166.91 17.0281 167.503 17.4129C168.096 17.7978 168.818 17.9313 169.509 17.7841C170.023 17.6777 170.495 17.4211 170.863 17.0469C171.232 16.6727 171.481 16.1976 171.58 15.6817C171.679 15.1658 171.622 14.6322 171.418 14.1483C171.214 13.6644 170.87 13.252 170.432 12.9631C169.996 12.6751 169.485 12.5236 168.963 12.5282L168.945 12.5177Z" fill="white"/>
<path id="Vector_43" d="M160.909 32.3894C164.127 32.3894 166.736 30.7266 166.736 28.6755C166.736 26.6243 164.127 24.9615 160.909 24.9615C157.69 24.9615 155.081 26.6243 155.081 28.6755C155.081 30.7266 157.69 32.3894 160.909 32.3894Z" fill="#2C4360"/>
<path id="Vector_44" d="M151.636 33.9129C152.958 33.9129 154.03 33.2308 154.03 32.3894C154.03 31.5479 152.958 30.8658 151.636 30.8658C150.315 30.8658 149.243 31.5479 149.243 32.3894C149.243 33.2308 150.315 33.9129 151.636 33.9129Z" fill="#2C4360"/>
</g>
</svg>
