<svg width="244" height="180" viewBox="0 0 244 180" fill="none" xmlns="http://www.w3.org/2000/svg">
<g id="Mail" clip-path="url(#clip0_50_6141)">
<path id="Vector" d="M57.9692 4.69812L58.8359 8.7894L79.4008 13.2481L57.9692 4.69812Z" fill="#D7DBE3"/>
<path id="Vector_2" d="M217.107 93.9303L215.951 101.543L182.873 107.661L217.107 93.9303Z" fill="#D7DBE3"/>
<path id="Vector_3" d="M162.18 74.5184C162.18 74.5184 176.906 81.0454 175.548 88.2743C175.548 88.2743 177.756 91.5771 162.18 100.825V74.5184Z" fill="#2C4360"/>
<path id="Vector_4" opacity="0.2" d="M162.18 74.5184C162.18 74.5184 176.906 81.0454 175.548 88.2743C175.548 88.2743 177.756 91.5771 162.18 100.825V74.5184Z" fill="black"/>
<path id="Vector_5" d="M41.2301 92.411C41.2301 92.411 32.489 83.9518 42.5755 78.8202L42.4104 93.505L41.2301 92.411Z" fill="#2C4360"/>
<path id="Vector_6" opacity="0.2" d="M41.2301 92.411C41.2301 92.411 32.489 83.9518 42.5755 78.8202L42.4104 93.505L41.2301 92.411Z" fill="black"/>
<path id="Vector_7" d="M136.185 44.5748H41.7502V151.122H136.185V44.5748Z" fill="#D7DBE3"/>
<path id="Vector_8" d="M162.176 58.8014H49.8516V165.348H162.176V58.8014Z" fill="#F8F9FB"/>
<path id="Vector_9" d="M85.3436 73.8991H69.1245C67.766 73.8991 66.6648 75.0007 66.6648 76.3597V76.3638C66.6648 77.7227 67.766 78.8243 69.1245 78.8243H85.3436C86.7021 78.8243 87.8034 77.7227 87.8034 76.3638V76.3597C87.8034 75.0007 86.7021 73.8991 85.3436 73.8991Z" fill="#D7DBE3"/>
<path id="Vector_10" d="M112.347 86.5156H60.6352C59.2768 86.5156 58.1755 87.6172 58.1755 88.9762V88.9803C58.1755 90.3392 59.2768 91.4409 60.6352 91.4409H112.347C113.705 91.4409 114.806 90.3392 114.806 88.9803V88.9762C114.806 87.6172 113.705 86.5156 112.347 86.5156Z" fill="#D7DBE3"/>
<path id="Vector_11" d="M90.6386 97.0596H60.6352C59.2768 97.0596 58.1755 98.1613 58.1755 99.5202V99.5243C58.1755 100.883 59.2768 101.985 60.6352 101.985H90.6386C91.9971 101.985 93.0983 100.883 93.0983 99.5243V99.5202C93.0983 98.1613 91.9971 97.0596 90.6386 97.0596Z" fill="#D7DBE3"/>
<path id="Vector_12" d="M119.998 97.0596H102.714C101.356 97.0596 100.255 98.1613 100.255 99.5202V99.5243C100.255 100.883 101.356 101.985 102.714 101.985H119.998C121.357 101.985 122.458 100.883 122.458 99.5243V99.5202C122.458 98.1613 121.357 97.0596 119.998 97.0596Z" fill="#D7DBE3"/>
<path id="Vector_13" d="M129.755 97.0596H127.542C126.184 97.0596 125.083 98.1613 125.083 99.5202V99.5243C125.083 100.883 126.184 101.985 127.542 101.985H129.755C131.113 101.985 132.214 100.883 132.214 99.5243V99.5202C132.214 98.1613 131.113 97.0596 129.755 97.0596Z" fill="#D7DBE3"/>
<path id="Vector_14" d="M136.7 86.5156H120.176C118.817 86.5156 117.716 87.6172 117.716 88.9762V88.9803C117.716 90.3392 118.817 91.4409 120.176 91.4409H136.7C138.059 91.4409 139.16 90.3392 139.16 88.9803V88.9762C139.16 87.6172 138.059 86.5156 136.7 86.5156Z" fill="#D7DBE3"/>
<path id="Vector_15" d="M103.556 73.8991H94.8855C93.527 73.8991 92.4258 75.0007 92.4258 76.3597V76.3638C92.4258 77.7227 93.527 78.8243 94.8855 78.8243H103.556C104.915 78.8243 106.016 77.7227 106.016 76.3638V76.3597C106.016 75.0007 104.915 73.8991 103.556 73.8991Z" fill="#D7DBE3"/>
<path id="Vector_16" opacity="0.2" d="M126.226 58.8014V79.5014L134.662 73.8991L143.258 79.5014V58.8014H126.226Z" fill="#8693A4"/>
<path id="Vector_17" d="M203.302 176.483C202.093 176.454 200.855 176.392 199.617 176.293L199.641 175.995C200.879 176.09 202.118 176.156 203.306 176.181L203.302 176.483ZM206.987 176.454V176.156C208.226 176.107 209.464 176.02 210.648 175.892L210.681 176.189C209.468 176.317 208.23 176.392 206.987 176.454ZM195.952 175.905C194.763 175.748 193.537 175.558 192.312 175.339L192.365 175.046C193.604 175.265 194.804 175.459 195.993 175.607L195.952 175.905ZM214.325 175.669L214.272 175.376C215.485 175.157 216.69 174.893 217.854 174.588L217.928 174.877C216.756 175.186 215.543 175.45 214.321 175.669H214.325ZM221.457 173.795L221.358 173.514C222.513 173.101 223.661 172.647 224.758 172.144L224.882 172.416C223.772 172.92 222.621 173.386 221.453 173.795H221.457ZM228.167 170.732L228.019 170.472C229.05 169.881 230.057 169.233 231.015 168.568L231.11 168.498L231.283 168.742L231.184 168.812C230.206 169.493 229.203 170.137 228.163 170.732H228.167ZM234.147 166.405L233.941 166.186C234.835 165.354 235.672 164.463 236.446 163.519L236.677 163.709C235.893 164.663 235.047 165.564 234.143 166.405H234.147ZM238.827 160.704L238.576 160.543C239.218 159.505 239.792 158.427 240.292 157.314L240.565 157.434C240.06 158.562 239.479 159.654 238.827 160.704ZM241.84 153.966L241.551 153.879C241.894 152.707 242.153 151.513 242.327 150.304L242.624 150.35C242.449 151.574 242.187 152.783 241.84 153.97V153.966ZM242.892 146.659H242.587V146.572C242.587 145.382 242.506 144.193 242.344 143.013L242.641 142.972C242.803 144.165 242.884 145.368 242.884 146.572L242.892 146.659ZM241.601 139.434C241.263 138.259 240.849 137.108 240.363 135.987L240.639 135.871C241.126 137.003 241.54 138.166 241.877 139.351L241.601 139.434ZM238.712 132.717C238.1 131.659 237.433 130.634 236.714 129.645L236.958 129.472C237.682 130.468 238.353 131.502 238.968 132.568L238.712 132.717ZM234.432 126.78C233.652 125.884 232.802 124.984 231.915 124.113L232.121 123.899C233.021 124.778 233.871 125.682 234.659 126.582L234.432 126.78ZM229.203 121.636C228.287 120.856 227.321 120.084 226.314 119.341L226.496 119.101C227.49 119.849 228.46 120.625 229.385 121.409L229.203 121.636ZM223.33 117.219C222.319 116.546 221.267 115.885 220.219 115.266L220.371 115.006C221.428 115.634 222.48 116.294 223.5 116.971L223.33 117.219Z" fill="#2C4360"/>
<path id="Vector_18" d="M216.042 176.061C215.464 175.929 214.878 175.793 214.288 175.649L214.362 175.36L216.108 175.772L216.042 176.061Z" fill="#2C4360"/>
<path id="Vector_19" d="M217.107 93.9303L210.33 87.5229L182.873 107.661L217.107 93.9303Z" fill="#D7DBE3"/>
<path id="Vector_20" d="M222.402 97.5922L232.823 106.836L182.873 107.661L222.402 97.5922Z" fill="#D7DBE3"/>
<path id="Vector_21" d="M182.873 107.661L218.097 107.079L216.215 112.921L182.873 107.661Z" fill="#D7DBE3"/>
<path id="Vector_22" d="M19.8935 109.656C19.1878 108.698 18.4779 107.711 17.7846 106.724L18.0281 106.551C18.7214 107.538 19.4312 108.524 20.137 109.478L19.8935 109.656ZM15.7211 103.744C15.0525 102.736 14.388 101.721 13.7484 100.713L14.0042 100.552C14.6398 101.556 15.3001 102.575 15.9728 103.574L15.7211 103.744ZM11.854 97.6377C11.2267 96.5932 10.6159 95.5404 10.0382 94.5124L10.2982 94.3679C10.8759 95.3918 11.4867 96.4322 12.1099 97.4849L11.854 97.6377ZM8.33371 91.3377C7.76831 90.2478 7.22354 89.1579 6.72005 88.101L6.99243 87.973C7.4918 89.0257 8.03656 90.1115 8.60196 91.1973L8.33371 91.3377ZM5.23432 84.8065C4.74734 83.6712 4.29749 82.54 3.89304 81.4459L4.17368 81.3427C4.58638 82.4326 5.02797 83.5555 5.50671 84.6909L5.23432 84.8065ZM2.73748 78.0193C2.3743 76.8303 2.06065 75.6537 1.80477 74.5225L2.09367 74.4565C2.34954 75.5794 2.66319 76.7519 3.02224 77.9326L2.73748 78.0193ZM1.15683 70.9638C0.991499 69.7663 0.896415 68.5601 0.87207 67.3514H1.17334C1.19695 68.5475 1.28927 69.7412 1.44985 70.9267L1.15683 70.9638ZM1.35906 63.7679L1.06191 63.7308C1.21524 62.5273 1.4777 61.3403 1.84605 60.1845L2.13081 60.2794C1.7666 61.416 1.50825 62.5838 1.35906 63.7679ZM11.1813 59.7716C10.4115 59.7568 9.65124 59.5971 8.94038 59.301L9.04768 59.0202C9.72408 59.3043 10.4479 59.4584 11.1813 59.4744C11.6184 59.4776 12.0527 59.405 12.4648 59.2597L12.5639 59.5445C12.1194 59.6985 11.6518 59.7753 11.1813 59.7716ZM5.8575 57.3606C5.32547 56.8691 4.84557 56.324 4.42543 55.734C3.93431 56.4111 3.64955 56.8982 3.64542 56.9024L3.57114 57.0303L3.31113 56.8776L3.38542 56.7537C3.38542 56.7537 3.7032 56.2088 4.24384 55.4698C4.02823 55.1461 3.82986 54.8112 3.64955 54.4666L3.91368 54.3262C4.07463 54.6358 4.24797 54.929 4.43368 55.2138C4.73083 54.801 5.08162 54.3881 5.47782 53.9505L5.70068 54.1528C5.28797 54.6111 4.91654 55.0693 4.61114 55.478C5.03132 56.0805 5.51716 56.6344 6.05973 57.1294L5.8575 57.3606ZM15.0855 56.9478L14.8007 56.8528C14.9336 56.445 15.0005 56.0185 14.9988 55.5895C14.996 54.8518 14.8087 54.1266 14.4541 53.4799L14.7182 53.3395C15.0967 54.029 15.2954 54.8029 15.296 55.5895C15.2985 56.0489 15.2288 56.5058 15.0896 56.9436L15.0855 56.9478ZM8.44101 51.8863L8.29657 51.6221C9.05077 51.1868 9.90229 50.9483 10.7728 50.9285C11.1424 50.9281 11.5103 50.9781 11.8664 51.0771L11.788 51.3661C11.4565 51.2718 11.1133 51.2245 10.7686 51.2257C9.94979 51.248 9.14955 51.4751 8.44101 51.8863ZM2.53938 50.9863C2.36116 49.7787 2.38207 48.55 2.60129 47.3491L2.89843 47.4028C2.68482 48.5723 2.66391 49.7688 2.83653 50.945L2.53938 50.9863ZM4.06225 44.0423L3.78987 43.9143C4.28924 42.8285 4.83813 41.7427 5.42004 40.6858L5.68417 40.8303C5.10639 41.8831 4.57813 42.9606 4.06225 44.0423ZM7.52481 37.7423L7.27307 37.5771C7.92513 36.5739 8.61847 35.5707 9.33657 34.6088L9.57594 34.7863C8.86197 35.7482 8.17276 36.739 7.52481 37.7423ZM11.8252 31.9624L11.5982 31.7684C12.3782 30.8601 13.1995 29.9643 14.0414 29.1056L14.256 29.3161C13.4182 30.1831 12.601 31.0748 11.8252 31.979V31.9624ZM16.8601 26.8349L16.6579 26.612C17.5535 25.8152 18.4862 25.0349 19.4312 24.2918L19.617 24.5271C18.676 25.2826 17.7474 26.0588 16.8601 26.8514V26.8349ZM22.5183 22.401L22.349 22.1533C23.3313 21.4803 24.3506 20.8239 25.3865 20.2005L25.5434 20.4565C24.5116 21.0923 23.4922 21.7487 22.5183 22.4175V22.401ZM28.6758 18.6854L28.5354 18.4212C29.5878 17.8679 30.6815 17.3354 31.7793 16.8317L31.9031 17.1042C30.8094 17.6285 29.724 18.1611 28.6758 18.7101V18.6854ZM35.2129 15.6964L35.1056 15.4198C36.2076 14.9822 37.3507 14.5652 38.4939 14.1813L38.593 14.4661C37.4498 14.8748 36.3149 15.2877 35.2129 15.7212V15.6964ZM42.0225 13.3886L41.94 13.0996C43.079 12.7734 44.2552 12.4638 45.4314 12.179L45.5016 12.4679C44.3295 12.7776 43.1574 13.0872 42.0225 13.4134V13.3886Z" fill="#2C4360"/>
<path id="Vector_23" d="M54.9895 6.56006L48.6628 12.5133L79.4256 13.2605L54.9895 6.56006Z" fill="#D7DBE3"/>
<path id="Vector_24" d="M61.5351 0.322021L57.8167 4.54129L79.273 13.1037L61.5351 0.322021Z" fill="#D7DBE3"/>
<path id="Vector_25" d="M58.7121 16.361L57.9692 12.7404L79.2976 13.2605L58.7121 16.361Z" fill="#D7DBE3"/>
<path id="Vector_26" d="M37.941 176.933L37.8213 85.9376C37.8213 85.9376 38.1927 90.0289 42.4105 93.505L100.333 134.203L116.016 132.845L171.256 94.5454C171.256 94.5454 176.382 91.4037 175.556 85.9459V176.937C175.556 177.306 175.483 177.672 175.342 178.014C175.2 178.355 174.993 178.665 174.732 178.926C174.47 179.187 174.16 179.394 173.818 179.535C173.477 179.676 173.111 179.749 172.742 179.748H40.7556C40.386 179.748 40.02 179.675 39.6785 179.534C39.337 179.392 39.0267 179.185 38.7654 178.924C38.504 178.662 38.2967 178.352 38.1552 178.01C38.0138 177.668 37.941 177.302 37.941 176.933Z" fill="#2C4360"/>
<path id="Vector_27" d="M42.5754 179.74L105.075 129.129C106.146 128.265 107.48 127.793 108.855 127.792C110.27 127.791 111.64 128.291 112.722 129.204L172.733 179.74H42.5754Z" fill="#2C4360"/>
<path id="Vector_28" opacity="0.2" d="M42.5754 179.74L105.075 129.129C106.146 128.265 107.48 127.793 108.855 127.792C110.27 127.791 111.64 128.291 112.722 129.204L172.733 179.74H42.5754Z" fill="black"/>
<path id="Vector_29" d="M144.418 77.3504L136.184 71.5624L127.547 77.3504V54.6853H144.418V77.3504Z" fill="#F8F9FB"/>
</g>
<defs>
<clipPath id="clip0_50_6141">
<rect width="242.256" height="180" fill="white" transform="translate(0.87207)"/>
</clipPath>
</defs>
</svg>
