<svg width="230" height="180" viewBox="0 0 230 180" fill="none" xmlns="http://www.w3.org/2000/svg">
<path d="M52.6038 30.3387C52.6038 30.3387 -10.1717 62.3802 7.83119 103.202C7.83119 103.202 19.6925 149.292 92.1101 136.561L198.335 126.018C198.335 126.018 224.29 125.704 220.771 94.9884C219.564 84.4449 213.391 75.1799 204.371 69.5972C199.418 66.5317 194.555 62.0586 193.975 56.1306C193.95 55.865 193.911 55.6011 193.857 55.3398C192.955 51.2411 184.718 19.9719 141.274 10.1349C141.271 10.1454 104.839 -3.46087 52.6038 30.3387Z" fill="#ECF2FE"/>
<path opacity="0.35" d="M109.291 172.011C156.703 172.011 195.138 168.534 195.138 164.245C195.138 159.957 156.703 156.48 109.291 156.48C61.8785 156.48 23.4434 159.957 23.4434 164.245C23.4434 168.534 61.8785 172.011 109.291 172.011Z" fill="#3E79F7"/>
<path d="M164.322 161.578C164.322 161.578 166.863 163.439 171.555 160.46C171.555 160.46 175.419 159.082 175.804 155.827C175.804 155.827 175.859 152.845 176.465 151.301C176.465 151.301 179.613 146.388 175.527 145.064L171.223 144.677L170.959 158.586L164.322 161.578Z" fill="#E6E7E8"/>
<path d="M173.416 134.692C173.416 134.692 173.766 137.945 170.624 140.976L166.671 136.408L173.416 134.692Z" fill="#2F2E41"/>
<path opacity="0.3" d="M173.416 134.692C173.416 134.692 173.766 137.945 170.624 140.976L166.671 136.408L173.416 134.692Z" fill="black"/>
<path d="M163.463 143.823L167.261 148.62C167.513 147.16 168.199 145.81 169.229 144.745C170.259 143.681 171.586 142.95 173.036 142.65C171.363 140.97 169.92 139.075 168.745 137.014L164.849 133.348C164.849 133.348 161.639 139.534 163.463 143.823Z" fill="#F9B499"/>
<path d="M140.544 152.353C140.544 152.353 143.088 155.803 155.6 146.29L153.323 139.118L140.544 148.744V152.353Z" fill="#2F2E41"/>
<path opacity="0.3" d="M140.544 152.353C140.544 152.353 143.088 155.803 155.6 146.29L153.323 139.118L140.544 148.744V152.353Z" fill="black"/>
<path d="M140.336 28.2037V79.8295C140.336 80.8781 139.919 81.8838 139.178 82.6253C138.436 83.3668 137.431 83.7833 136.382 83.7833H63.809C62.7604 83.7833 61.7547 83.3668 61.0133 82.6253C60.2718 81.8838 59.8552 80.8781 59.8552 79.8295V28.2037C59.8552 27.1551 60.2718 26.1494 61.0133 25.4079C61.7547 24.6664 62.7604 24.2499 63.809 24.2499H136.382C137.431 24.2499 138.436 24.6664 139.178 25.4079C139.919 26.1494 140.336 27.1551 140.336 28.2037Z" fill="#3E79F7"/>
<path opacity="0.5" d="M140.336 28.2037V79.8295C140.336 80.8781 139.919 81.8838 139.178 82.6253C138.436 83.3668 137.431 83.7833 136.382 83.7833H63.809C62.7604 83.7833 61.7547 83.3668 61.0133 82.6253C60.2718 81.8838 59.8552 80.8781 59.8552 79.8295V28.2037C59.8552 27.1551 60.2718 26.1494 61.0133 25.4079C61.7547 24.6664 62.7604 24.2499 63.809 24.2499H136.382C137.431 24.2499 138.436 24.6664 139.178 25.4079C139.919 26.1494 140.336 27.1551 140.336 28.2037Z" fill="white"/>
<path d="M173.416 134.692C171.984 136.577 166.934 137.405 166.934 137.405C163.244 138.459 163.463 143.815 163.463 143.815L152.919 131.221C149.516 128.29 148.243 119.768 148.243 119.768C148.47 131.608 156.609 145.708 156.609 145.708C155.181 147.139 149.975 146.535 149.598 146.535C143.493 146.535 140.552 152.334 140.552 152.334C130.825 127.794 136.311 102.021 136.311 102.021L141.082 101.051L146.952 99.6354H152.379L152.83 100.69C154.762 103.376 156.24 109.406 156.931 112.641C157.507 115.413 158.597 118.053 160.144 120.424C164.947 127.718 173.416 134.692 173.416 134.692Z" fill="#2F2E41"/>
<path opacity="0.2" d="M148.243 119.771L147.342 115.379C147.342 115.379 150.017 112.388 149.166 106.014C149.166 106.014 151.24 109.878 149.45 116.626C149.374 116.913 149.345 117.21 149.363 117.506C149.501 119.352 150.059 126.41 150.895 128.472C150.879 128.472 149.11 125.172 148.243 119.771Z" fill="black"/>
<path opacity="0.2" d="M156.602 145.707C155.173 147.139 149.967 146.535 149.59 146.535C143.486 146.535 140.544 152.334 140.544 152.334C130.818 127.794 136.303 102.021 136.303 102.021C136.303 102.021 135.794 121.123 138.509 125.306H142.463L138.053 127.794L139.371 128.466C139.371 128.466 134.782 132.657 139.982 146.229C139.982 146.229 140.663 147.811 145.072 145.323C145.08 145.328 153.099 142.463 156.602 145.707Z" fill="black"/>
<path d="M159.599 90.8738C158.832 90.8738 158.13 91.7146 157.703 92.3551C157.464 92.7215 157.308 93.0273 157.284 93.0721C157.035 93.6717 156.698 94.2306 156.283 94.73L156.251 94.7617C155.864 95.2492 155.367 95.6384 154.801 95.8977L155.932 100.252C155.434 100.571 153.642 100.669 152.379 100.695C151.696 100.715 151.016 100.602 150.376 100.363C149.911 100.171 149.406 100.096 148.906 100.146C148.406 100.195 147.926 100.368 147.508 100.648C142.249 105.682 139.479 103.246 139.479 103.246C138.257 102.599 136.948 102.134 135.591 101.865C135.529 101.853 135.469 101.829 135.416 101.794C135.363 101.758 135.318 101.712 135.283 101.659C135.248 101.605 135.225 101.545 135.214 101.483C135.203 101.42 135.205 101.355 135.22 101.293L137.028 93.4754C135.23 94.2134 133.912 93.6731 132.982 92.7742C131.637 91.4642 131.11 89.403 131.11 89.403C130.881 85.8419 133.62 84.9932 133.62 84.9932L133.651 81.9409C133.201 75.4936 137.328 75.1562 137.328 75.1562C139.09 75.0513 140.78 74.4216 142.181 73.348L146.662 72.7233L156.502 83.185L159.599 90.8738Z" fill="#3E79F7"/>
<path d="M158.259 91.6329C158.259 91.6329 160.418 96.0902 155.389 98.2226L154.785 95.9004C155.915 95.2706 156.794 94.2722 157.276 93.0721C157.531 92.5462 157.862 92.0611 158.259 91.6329Z" fill="#F9B499"/>
<path d="M123.242 79.1126C123.242 79.1126 124.352 79.7927 125.193 79.537L124.929 79.1126C124.929 79.1126 123.466 77.5311 123.242 79.1126Z" fill="#F7A48B"/>
<path d="M143.762 156.865L141.443 150.955C141.443 150.955 144.503 146.554 149.013 146.554C149.013 146.554 150.215 151.607 151.122 153.246C151.119 153.246 145.747 153.246 143.762 156.865Z" fill="#F9B499"/>
<path d="M135.855 167.042C135.855 167.042 135.119 168.231 138.058 168.795C138.058 168.795 143.712 169.984 146.032 166.251L148.075 162.179C148.075 162.179 149.878 155.903 152.93 156.583L152.366 155.961L149.422 154.725L142.864 165.582L135.855 167.042Z" fill="#2F2E41"/>
<path d="M136.382 168.236C136.382 168.236 137.934 170.832 144.664 169.362C144.664 169.362 148.826 169.362 150.315 164.77C150.522 164.071 150.882 163.426 151.369 162.883C151.53 162.708 151.707 162.549 151.896 162.406C151.896 162.406 155.969 158.9 152.914 156.583C152.914 156.583 152.057 155.998 150.386 156.928C149.017 157.714 147.996 158.989 147.529 160.497L146.693 163.107C146.693 163.107 144.392 169.936 136.382 168.236Z" fill="#E6E7E8"/>
<path d="M163.444 160.729C163.444 160.729 163.444 161.668 164.934 161.612C164.934 161.612 173.896 161.794 173.036 152.339C173.036 152.339 172.551 145.773 175.53 145.056L175.09 144.669C175.09 144.669 170.751 145.312 171.136 153.354C171.153 153.685 171.137 154.017 171.086 154.345C170.856 155.745 169.913 159.09 166.078 159.978C166.083 159.978 163.885 160.289 163.444 160.729Z" fill="#2F2E41"/>
<path d="M140.336 28.2037V30.4204H59.8472V28.2037C59.8472 27.1551 60.2637 26.1494 61.0052 25.4079C61.7467 24.6664 62.7523 24.2499 63.801 24.2499H136.382C137.431 24.2499 138.436 24.6664 139.178 25.4079C139.919 26.1494 140.336 27.1551 140.336 28.2037Z" fill="#3E79F7"/>
<path opacity="0.5" d="M127.296 28.4198C127.891 28.4198 128.374 27.9371 128.374 27.3417C128.374 26.7463 127.891 26.2637 127.296 26.2637C126.701 26.2637 126.218 26.7463 126.218 27.3417C126.218 27.9371 126.701 28.4198 127.296 28.4198Z" fill="white"/>
<path opacity="0.5" d="M131.722 28.4198C132.317 28.4198 132.8 27.9371 132.8 27.3417C132.8 26.7463 132.317 26.2637 131.722 26.2637C131.126 26.2637 130.644 26.7463 130.644 27.3417C130.644 27.9371 131.126 28.4198 131.722 28.4198Z" fill="white"/>
<path opacity="0.5" d="M136.15 28.4198C136.745 28.4198 137.228 27.9371 137.228 27.3417C137.228 26.7463 136.745 26.2637 136.15 26.2637C135.555 26.2637 135.072 26.7463 135.072 27.3417C135.072 27.9371 135.555 28.4198 136.15 28.4198Z" fill="white"/>
<path d="M94.0658 48.7633C94.0642 51.2906 93.3133 53.7606 91.908 55.8611C90.5027 57.9616 88.5061 59.5983 86.1707 60.5641C83.8352 61.5299 81.2658 61.7815 78.7874 61.2871C76.309 60.7928 74.0328 59.5746 72.2467 57.7866C70.4605 55.9986 69.2447 53.7212 68.7529 51.2422C68.261 48.7633 68.5153 46.1942 69.4835 43.8598C70.4518 41.5253 72.0905 39.5304 74.1924 38.1272C76.2944 36.7241 78.7652 35.9757 81.2925 35.9768C82.9727 35.9705 84.6376 36.297 86.1911 36.9376C87.7445 37.5781 89.1557 38.5199 90.3433 39.7087C91.5308 40.8974 92.4712 42.3096 93.1101 43.8637C93.749 45.4178 94.0738 47.083 94.0658 48.7633Z" fill="white"/>
<path d="M91.7858 56.0436C90.617 57.7277 89.0602 59.1058 87.2468 60.0617C85.4335 61.0176 83.4167 61.5232 81.3669 61.5359C79.317 61.5486 77.2942 61.0679 75.4691 60.1345C73.6441 59.201 72.0704 57.8423 70.8809 56.1728C72.0828 52.4141 76.316 49.6359 81.3558 49.6359C86.3349 49.6359 90.518 52.3508 91.7858 56.0436Z" fill="#2F2E41"/>
<path d="M81.4903 48.2836C84.179 48.2836 86.3587 46.1039 86.3587 43.4152C86.3587 40.7264 84.179 38.5468 81.4903 38.5468C78.8015 38.5468 76.6218 40.7264 76.6218 43.4152C76.6218 46.1039 78.8015 48.2836 81.4903 48.2836Z" fill="#2F2E41"/>
<path d="M124.629 47.8119H102.316C101.975 47.8119 101.648 47.6763 101.407 47.4351C101.165 47.1939 101.03 46.8667 101.03 46.5256C101.03 46.1844 101.165 45.8572 101.407 45.616C101.648 45.3748 101.975 45.2393 102.316 45.2393H124.629C124.97 45.2393 125.297 45.3748 125.538 45.616C125.779 45.8572 125.915 46.1844 125.915 46.5256C125.915 46.8667 125.779 47.1939 125.538 47.4351C125.297 47.6763 124.97 47.8119 124.629 47.8119Z" fill="#2F2E41"/>
<path d="M130.644 54.1668H102.316C101.975 54.1668 101.648 54.0313 101.407 53.7901C101.165 53.5489 101.03 53.2217 101.03 52.8805C101.03 52.5394 101.165 52.2122 101.407 51.971C101.648 51.7298 101.975 51.5942 102.316 51.5942H130.644C130.985 51.5942 131.312 51.7298 131.553 51.971C131.794 52.2122 131.93 52.5394 131.93 52.8805C131.93 53.2217 131.794 53.5489 131.553 53.7901C131.312 54.0313 130.985 54.1668 130.644 54.1668Z" fill="#2F2E41"/>
<path d="M123.237 67.4858H78.9202C76.083 67.4858 73.783 69.7859 73.783 72.6231V72.6258C73.783 75.463 76.083 77.763 78.9202 77.763H123.237C126.074 77.763 128.374 75.463 128.374 72.6258V72.6231C128.374 69.7859 126.074 67.4858 123.237 67.4858Z" fill="#3E79F7"/>
<path d="M79.8521 72.6113H80.5845C80.561 72.8906 80.4829 73.1396 80.3501 73.3584C80.2173 73.5752 80.0308 73.7461 79.7905 73.8711C79.5503 73.9961 79.2583 74.0586 78.9146 74.0586C78.6509 74.0586 78.4136 74.0117 78.2026 73.918C77.9917 73.8223 77.811 73.6875 77.6606 73.5137C77.5103 73.3379 77.395 73.126 77.3149 72.8779C77.2368 72.6299 77.1978 72.3525 77.1978 72.0459V71.6914C77.1978 71.3848 77.2378 71.1074 77.3179 70.8594C77.3999 70.6113 77.5171 70.3994 77.6694 70.2236C77.8218 70.0459 78.0044 69.9102 78.2173 69.8164C78.4321 69.7227 78.6733 69.6758 78.9409 69.6758C79.2808 69.6758 79.5679 69.7383 79.8022 69.8633C80.0366 69.9883 80.2183 70.1611 80.3472 70.3818C80.478 70.6025 80.5581 70.8555 80.5874 71.1406H79.855C79.8354 70.957 79.7925 70.7998 79.7261 70.6689C79.6616 70.5381 79.5659 70.4385 79.439 70.3701C79.312 70.2998 79.146 70.2646 78.9409 70.2646C78.7729 70.2646 78.6265 70.2959 78.5015 70.3584C78.3765 70.4209 78.272 70.5127 78.188 70.6338C78.104 70.7549 78.0405 70.9043 77.9976 71.082C77.9565 71.2578 77.936 71.459 77.936 71.6855V72.0459C77.936 72.2607 77.9546 72.4561 77.9917 72.6318C78.0308 72.8057 78.0894 72.9551 78.1675 73.0801C78.2476 73.2051 78.3491 73.3018 78.4722 73.3701C78.5952 73.4385 78.7427 73.4727 78.9146 73.4727C79.1235 73.4727 79.2925 73.4395 79.4214 73.373C79.5522 73.3066 79.6509 73.21 79.7173 73.083C79.7856 72.9541 79.8306 72.7969 79.8521 72.6113ZM81.8794 69.5V74H81.1763V69.5H81.8794ZM81.7563 72.2979L81.5278 72.2949C81.5298 72.0762 81.5601 71.874 81.6187 71.6885C81.6792 71.5029 81.7632 71.3418 81.8706 71.2051C81.98 71.0664 82.1108 70.96 82.2632 70.8857C82.4155 70.8096 82.5845 70.7715 82.77 70.7715C82.9263 70.7715 83.0669 70.793 83.1919 70.8359C83.3188 70.8789 83.4282 70.9482 83.52 71.0439C83.6118 71.1377 83.6812 71.2607 83.728 71.4131C83.7769 71.5635 83.8013 71.7471 83.8013 71.9639V74H83.0923V71.958C83.0923 71.8057 83.0698 71.6846 83.0249 71.5947C82.9819 71.5049 82.9185 71.4404 82.8345 71.4014C82.7505 71.3604 82.6479 71.3398 82.5269 71.3398C82.3999 71.3398 82.2876 71.3652 82.1899 71.416C82.0942 71.4668 82.0142 71.5361 81.9497 71.624C81.8853 71.7119 81.8364 71.8135 81.8032 71.9287C81.772 72.0439 81.7563 72.167 81.7563 72.2979ZM86.3032 73.3643V71.8525C86.3032 71.7393 86.2827 71.6416 86.2417 71.5596C86.2007 71.4775 86.1382 71.4141 86.0542 71.3691C85.9722 71.3242 85.8687 71.3018 85.7437 71.3018C85.6284 71.3018 85.5288 71.3213 85.4448 71.3604C85.3608 71.3994 85.2954 71.4521 85.2485 71.5186C85.2017 71.585 85.1782 71.6602 85.1782 71.7441H84.4751C84.4751 71.6191 84.5054 71.498 84.5659 71.3809C84.6265 71.2637 84.7144 71.1592 84.8296 71.0674C84.9448 70.9756 85.0825 70.9033 85.2427 70.8506C85.4028 70.7979 85.5825 70.7715 85.7817 70.7715C86.02 70.7715 86.231 70.8115 86.4146 70.8916C86.6001 70.9717 86.7456 71.0928 86.8511 71.2549C86.9585 71.415 87.0122 71.6162 87.0122 71.8584V73.2676C87.0122 73.4121 87.022 73.542 87.0415 73.6572C87.063 73.7705 87.0933 73.8691 87.1323 73.9531V74H86.4087C86.3755 73.9238 86.3491 73.8271 86.3296 73.71C86.312 73.5908 86.3032 73.4756 86.3032 73.3643ZM86.4058 72.0723L86.4116 72.5088H85.9048C85.7739 72.5088 85.6587 72.5215 85.5591 72.5469C85.4595 72.5703 85.3765 72.6055 85.3101 72.6523C85.2437 72.6992 85.1938 72.7559 85.1606 72.8223C85.1274 72.8887 85.1108 72.9639 85.1108 73.0479C85.1108 73.1318 85.1304 73.209 85.1694 73.2793C85.2085 73.3477 85.2651 73.4014 85.3394 73.4404C85.4155 73.4795 85.5073 73.499 85.6147 73.499C85.7593 73.499 85.8853 73.4697 85.9927 73.4111C86.1021 73.3506 86.188 73.2773 86.2505 73.1914C86.313 73.1035 86.3462 73.0205 86.3501 72.9424L86.5786 73.2559C86.5552 73.3359 86.5151 73.4219 86.4585 73.5137C86.4019 73.6055 86.3276 73.6934 86.2358 73.7773C86.146 73.8594 86.0376 73.9268 85.9106 73.9795C85.7856 74.0322 85.6411 74.0586 85.4771 74.0586C85.27 74.0586 85.0854 74.0176 84.9233 73.9355C84.7612 73.8516 84.6343 73.7393 84.5425 73.5986C84.4507 73.4561 84.4048 73.2949 84.4048 73.1152C84.4048 72.9473 84.436 72.7988 84.4985 72.6699C84.563 72.5391 84.6567 72.4297 84.7798 72.3418C84.9048 72.2539 85.0571 72.1875 85.2368 72.1426C85.4165 72.0957 85.6216 72.0723 85.8521 72.0723H86.4058ZM88.4507 71.5068V74H87.7446V70.8301H88.4097L88.4507 71.5068ZM88.3247 72.2979L88.0962 72.2949C88.0981 72.0703 88.1294 71.8643 88.1899 71.6768C88.2524 71.4893 88.3384 71.3281 88.4478 71.1934C88.5591 71.0586 88.6919 70.9551 88.8462 70.8828C89.0005 70.8086 89.1724 70.7715 89.3618 70.7715C89.5142 70.7715 89.6519 70.793 89.7749 70.8359C89.8999 70.877 90.0063 70.9443 90.0942 71.0381C90.1841 71.1318 90.2524 71.2539 90.2993 71.4043C90.3462 71.5527 90.3696 71.7354 90.3696 71.9521V74H89.6606V71.9492C89.6606 71.7969 89.6382 71.6768 89.5933 71.5889C89.5503 71.499 89.4868 71.4355 89.4028 71.3984C89.3208 71.3594 89.2183 71.3398 89.0952 71.3398C88.9741 71.3398 88.8657 71.3652 88.77 71.416C88.6743 71.4668 88.5933 71.5361 88.5269 71.624C88.4624 71.7119 88.4126 71.8135 88.3774 71.9287C88.3423 72.0439 88.3247 72.167 88.3247 72.2979ZM93.1206 70.8301H93.7622V73.9121C93.7622 74.1973 93.7017 74.4395 93.5806 74.6387C93.4595 74.8379 93.2905 74.9893 93.0737 75.0928C92.8569 75.1982 92.606 75.251 92.3208 75.251C92.1997 75.251 92.0649 75.2334 91.9165 75.1982C91.77 75.1631 91.6274 75.1064 91.4888 75.0283C91.3521 74.9521 91.2378 74.8516 91.146 74.7266L91.4771 74.3105C91.5903 74.4453 91.7153 74.5439 91.8521 74.6064C91.9888 74.6689 92.1323 74.7002 92.2827 74.7002C92.4448 74.7002 92.5825 74.6699 92.6958 74.6094C92.811 74.5508 92.8999 74.4639 92.9624 74.3486C93.0249 74.2334 93.0562 74.0928 93.0562 73.9268V71.5479L93.1206 70.8301ZM90.9673 72.4502V72.3887C90.9673 72.1484 90.9966 71.9297 91.0552 71.7324C91.1138 71.5332 91.1978 71.3623 91.3071 71.2197C91.4165 71.0752 91.5493 70.9648 91.7056 70.8887C91.8618 70.8105 92.0386 70.7715 92.2358 70.7715C92.4409 70.7715 92.6157 70.8086 92.7603 70.8828C92.9067 70.957 93.0288 71.0635 93.1265 71.2021C93.2241 71.3389 93.3003 71.5029 93.355 71.6943C93.4116 71.8838 93.4536 72.0947 93.481 72.3271V72.5234C93.4556 72.75 93.4126 72.957 93.3521 73.1445C93.2915 73.332 93.2114 73.4941 93.1118 73.6309C93.0122 73.7676 92.8892 73.873 92.7427 73.9473C92.5981 74.0215 92.4272 74.0586 92.23 74.0586C92.0366 74.0586 91.8618 74.0186 91.7056 73.9385C91.5513 73.8584 91.4185 73.7461 91.3071 73.6016C91.1978 73.457 91.1138 73.2871 91.0552 73.0918C90.9966 72.8945 90.9673 72.6807 90.9673 72.4502ZM91.6733 72.3887V72.4502C91.6733 72.5947 91.687 72.7295 91.7144 72.8545C91.7437 72.9795 91.7876 73.0898 91.8462 73.1855C91.9067 73.2793 91.9829 73.3535 92.0747 73.4082C92.1685 73.4609 92.2788 73.4873 92.4058 73.4873C92.5718 73.4873 92.7075 73.4521 92.813 73.3818C92.9204 73.3115 93.0024 73.2168 93.0591 73.0977C93.1177 72.9766 93.1587 72.8418 93.1821 72.6934V72.1631C93.1704 72.0479 93.146 71.9404 93.1089 71.8408C93.0737 71.7412 93.0259 71.6543 92.9653 71.5801C92.9048 71.5039 92.8286 71.4453 92.7368 71.4043C92.645 71.3613 92.5366 71.3398 92.4116 71.3398C92.2847 71.3398 92.1743 71.3672 92.0806 71.4219C91.9868 71.4766 91.9097 71.5518 91.8491 71.6475C91.7905 71.7432 91.7466 71.8545 91.7173 71.9814C91.688 72.1084 91.6733 72.2441 91.6733 72.3887ZM95.8921 74.0586C95.6577 74.0586 95.4458 74.0205 95.2563 73.9443C95.0688 73.8662 94.9087 73.7578 94.7759 73.6191C94.645 73.4805 94.5444 73.3174 94.4741 73.1299C94.4038 72.9424 94.3687 72.7402 94.3687 72.5234V72.4062C94.3687 72.1582 94.4048 71.9336 94.4771 71.7324C94.5493 71.5312 94.6499 71.3594 94.7788 71.2168C94.9077 71.0723 95.0601 70.9619 95.2358 70.8857C95.4116 70.8096 95.6021 70.7715 95.8071 70.7715C96.0337 70.7715 96.2319 70.8096 96.4019 70.8857C96.5718 70.9619 96.7124 71.0693 96.8237 71.208C96.937 71.3447 97.021 71.5078 97.0757 71.6973C97.1323 71.8867 97.1606 72.0957 97.1606 72.3242V72.626H94.7114V72.1191H96.4634V72.0635C96.4595 71.9365 96.4341 71.8174 96.3872 71.7061C96.3423 71.5947 96.2729 71.5049 96.1792 71.4365C96.0854 71.3682 95.9604 71.334 95.8042 71.334C95.687 71.334 95.5825 71.3594 95.4907 71.4102C95.4009 71.459 95.3257 71.5303 95.2651 71.624C95.2046 71.7178 95.1577 71.8311 95.1245 71.9639C95.0933 72.0947 95.0776 72.2422 95.0776 72.4062V72.5234C95.0776 72.6621 95.0962 72.791 95.1333 72.9102C95.1724 73.0273 95.229 73.1299 95.3032 73.2178C95.3774 73.3057 95.4673 73.375 95.5728 73.4258C95.6782 73.4746 95.7983 73.499 95.9331 73.499C96.103 73.499 96.2544 73.4648 96.3872 73.3965C96.52 73.3281 96.6353 73.2314 96.7329 73.1064L97.105 73.4668C97.0366 73.5664 96.9478 73.6621 96.8384 73.7539C96.729 73.8438 96.5952 73.917 96.437 73.9736C96.2808 74.0303 96.0991 74.0586 95.8921 74.0586ZM99.9146 71.4395V75.2188H99.2085V70.8301H99.8589L99.9146 71.4395ZM101.98 72.3857V72.4473C101.98 72.6777 101.953 72.8916 101.898 73.0889C101.845 73.2842 101.766 73.4551 101.661 73.6016C101.557 73.7461 101.429 73.8584 101.277 73.9385C101.125 74.0186 100.949 74.0586 100.75 74.0586C100.552 74.0586 100.379 74.0225 100.231 73.9502C100.084 73.876 99.9604 73.7715 99.8589 73.6367C99.7573 73.502 99.6753 73.3438 99.6128 73.1621C99.5522 72.9785 99.5093 72.7773 99.4839 72.5586V72.3213C99.5093 72.0889 99.5522 71.8779 99.6128 71.6885C99.6753 71.499 99.7573 71.3359 99.8589 71.1992C99.9604 71.0625 100.084 70.957 100.231 70.8828C100.377 70.8086 100.548 70.7715 100.744 70.7715C100.943 70.7715 101.12 70.8105 101.274 70.8887C101.428 70.9648 101.558 71.0742 101.664 71.2168C101.769 71.3574 101.848 71.5273 101.901 71.7266C101.954 71.9238 101.98 72.1436 101.98 72.3857ZM101.274 72.4473V72.3857C101.274 72.2393 101.26 72.1035 101.233 71.9785C101.206 71.8516 101.163 71.7402 101.104 71.6445C101.045 71.5488 100.97 71.4746 100.878 71.4219C100.789 71.3672 100.68 71.3398 100.553 71.3398C100.428 71.3398 100.321 71.3613 100.231 71.4043C100.141 71.4453 100.066 71.5029 100.005 71.5771C99.9448 71.6514 99.8979 71.7383 99.8647 71.8379C99.8315 71.9355 99.8081 72.042 99.7944 72.1572V72.7256C99.8179 72.8662 99.8579 72.9951 99.9146 73.1123C99.9712 73.2295 100.051 73.3232 100.155 73.3936C100.26 73.4619 100.395 73.4961 100.559 73.4961C100.686 73.4961 100.794 73.4688 100.884 73.4141C100.974 73.3594 101.047 73.2842 101.104 73.1885C101.163 73.0908 101.206 72.9785 101.233 72.8516C101.26 72.7246 101.274 72.5898 101.274 72.4473ZM104.368 73.3643V71.8525C104.368 71.7393 104.347 71.6416 104.306 71.5596C104.265 71.4775 104.203 71.4141 104.119 71.3691C104.037 71.3242 103.933 71.3018 103.808 71.3018C103.693 71.3018 103.593 71.3213 103.509 71.3604C103.425 71.3994 103.36 71.4521 103.313 71.5186C103.266 71.585 103.243 71.6602 103.243 71.7441H102.54C102.54 71.6191 102.57 71.498 102.63 71.3809C102.691 71.2637 102.779 71.1592 102.894 71.0674C103.009 70.9756 103.147 70.9033 103.307 70.8506C103.467 70.7979 103.647 70.7715 103.846 70.7715C104.084 70.7715 104.295 70.8115 104.479 70.8916C104.665 70.9717 104.81 71.0928 104.916 71.2549C105.023 71.415 105.077 71.6162 105.077 71.8584V73.2676C105.077 73.4121 105.086 73.542 105.106 73.6572C105.127 73.7705 105.158 73.8691 105.197 73.9531V74H104.473C104.44 73.9238 104.414 73.8271 104.394 73.71C104.376 73.5908 104.368 73.4756 104.368 73.3643ZM104.47 72.0723L104.476 72.5088H103.969C103.838 72.5088 103.723 72.5215 103.624 72.5469C103.524 72.5703 103.441 72.6055 103.375 72.6523C103.308 72.6992 103.258 72.7559 103.225 72.8223C103.192 72.8887 103.175 72.9639 103.175 73.0479C103.175 73.1318 103.195 73.209 103.234 73.2793C103.273 73.3477 103.33 73.4014 103.404 73.4404C103.48 73.4795 103.572 73.499 103.679 73.499C103.824 73.499 103.95 73.4697 104.057 73.4111C104.167 73.3506 104.252 73.2773 104.315 73.1914C104.377 73.1035 104.411 73.0205 104.415 72.9424L104.643 73.2559C104.62 73.3359 104.58 73.4219 104.523 73.5137C104.466 73.6055 104.392 73.6934 104.3 73.7773C104.21 73.8594 104.102 73.9268 103.975 73.9795C103.85 74.0322 103.706 74.0586 103.542 74.0586C103.334 74.0586 103.15 74.0176 102.988 73.9355C102.826 73.8516 102.699 73.7393 102.607 73.5986C102.515 73.4561 102.469 73.2949 102.469 73.1152C102.469 72.9473 102.5 72.7988 102.563 72.6699C102.627 72.5391 102.721 72.4297 102.844 72.3418C102.969 72.2539 103.122 72.1875 103.301 72.1426C103.481 72.0957 103.686 72.0723 103.917 72.0723H104.47ZM107.593 73.1416C107.593 73.0713 107.576 73.0078 107.541 72.9512C107.505 72.8926 107.438 72.8398 107.338 72.793C107.241 72.7461 107.096 72.7031 106.905 72.6641C106.737 72.627 106.583 72.583 106.442 72.5322C106.303 72.4795 106.184 72.416 106.084 72.3418C105.985 72.2676 105.908 72.1797 105.853 72.0781C105.798 71.9766 105.771 71.8594 105.771 71.7266C105.771 71.5977 105.799 71.4756 105.856 71.3604C105.913 71.2451 105.994 71.1436 106.099 71.0557C106.205 70.9678 106.333 70.8984 106.483 70.8477C106.635 70.7969 106.805 70.7715 106.993 70.7715C107.258 70.7715 107.486 70.8164 107.675 70.9062C107.867 70.9941 108.013 71.1143 108.115 71.2666C108.216 71.417 108.267 71.5869 108.267 71.7764H107.561C107.561 71.6924 107.54 71.6143 107.497 71.542C107.456 71.4678 107.393 71.4082 107.309 71.3633C107.225 71.3164 107.12 71.293 106.993 71.293C106.872 71.293 106.771 71.3125 106.691 71.3516C106.613 71.3887 106.554 71.4375 106.515 71.498C106.478 71.5586 106.459 71.625 106.459 71.6973C106.459 71.75 106.469 71.7979 106.489 71.8408C106.51 71.8818 106.545 71.9199 106.594 71.9551C106.643 71.9883 106.709 72.0195 106.793 72.0488C106.879 72.0781 106.987 72.1064 107.116 72.1338C107.358 72.1846 107.566 72.25 107.74 72.3301C107.916 72.4082 108.05 72.5098 108.144 72.6348C108.238 72.7578 108.285 72.9141 108.285 73.1035C108.285 73.2441 108.254 73.373 108.194 73.4902C108.135 73.6055 108.049 73.7061 107.936 73.792C107.823 73.876 107.687 73.9414 107.529 73.9883C107.373 74.0352 107.197 74.0586 107.001 74.0586C106.714 74.0586 106.471 74.0078 106.272 73.9062C106.073 73.8027 105.921 73.6709 105.818 73.5107C105.716 73.3486 105.666 73.1807 105.666 73.0068H106.348C106.356 73.1377 106.392 73.2422 106.457 73.3203C106.523 73.3965 106.605 73.4521 106.703 73.4873C106.802 73.5205 106.905 73.5371 107.01 73.5371C107.137 73.5371 107.244 73.5205 107.33 73.4873C107.416 73.4521 107.481 73.4053 107.526 73.3467C107.571 73.2861 107.593 73.2178 107.593 73.1416ZM110.681 73.1416C110.681 73.0713 110.664 73.0078 110.628 72.9512C110.593 72.8926 110.526 72.8398 110.426 72.793C110.329 72.7461 110.184 72.7031 109.993 72.6641C109.825 72.627 109.67 72.583 109.53 72.5322C109.391 72.4795 109.272 72.416 109.172 72.3418C109.073 72.2676 108.996 72.1797 108.941 72.0781C108.886 71.9766 108.859 71.8594 108.859 71.7266C108.859 71.5977 108.887 71.4756 108.944 71.3604C109 71.2451 109.082 71.1436 109.187 71.0557C109.292 70.9678 109.42 70.8984 109.571 70.8477C109.723 70.7969 109.893 70.7715 110.081 70.7715C110.346 70.7715 110.574 70.8164 110.763 70.9062C110.955 70.9941 111.101 71.1143 111.203 71.2666C111.304 71.417 111.355 71.5869 111.355 71.7764H110.649C110.649 71.6924 110.627 71.6143 110.584 71.542C110.543 71.4678 110.481 71.4082 110.397 71.3633C110.313 71.3164 110.208 71.293 110.081 71.293C109.959 71.293 109.859 71.3125 109.779 71.3516C109.701 71.3887 109.642 71.4375 109.603 71.498C109.566 71.5586 109.547 71.625 109.547 71.6973C109.547 71.75 109.557 71.7979 109.577 71.8408C109.598 71.8818 109.633 71.9199 109.682 71.9551C109.731 71.9883 109.797 72.0195 109.881 72.0488C109.967 72.0781 110.075 72.1064 110.204 72.1338C110.446 72.1846 110.654 72.25 110.828 72.3301C111.003 72.4082 111.138 72.5098 111.232 72.6348C111.326 72.7578 111.373 72.9141 111.373 73.1035C111.373 73.2441 111.342 73.373 111.282 73.4902C111.223 73.6055 111.137 73.7061 111.024 73.792C110.911 73.876 110.775 73.9414 110.617 73.9883C110.46 74.0352 110.285 74.0586 110.089 74.0586C109.802 74.0586 109.559 74.0078 109.36 73.9062C109.161 73.8027 109.009 73.6709 108.906 73.5107C108.804 73.3486 108.753 73.1807 108.753 73.0068H109.436C109.444 73.1377 109.48 73.2422 109.544 73.3203C109.611 73.3965 109.693 73.4521 109.791 73.4873C109.89 73.5205 109.993 73.5371 110.098 73.5371C110.225 73.5371 110.332 73.5205 110.417 73.4873C110.503 73.4521 110.569 73.4053 110.614 73.3467C110.659 73.2861 110.681 73.2178 110.681 73.1416ZM112.852 73.2969L113.584 70.8301H114.036L113.913 71.5684L113.174 74H112.77L112.852 73.2969ZM112.421 70.8301L112.993 73.3086L113.04 74H112.588L111.73 70.8301H112.421ZM114.721 73.2793L115.275 70.8301H115.963L115.108 74H114.657L114.721 73.2793ZM114.112 70.8301L114.835 73.2676L114.926 74H114.522L113.775 71.5654L113.652 70.8301H114.112ZM116.309 72.4502V72.3828C116.309 72.1543 116.342 71.9424 116.409 71.7471C116.475 71.5498 116.571 71.3789 116.696 71.2344C116.823 71.0879 116.977 70.9746 117.159 70.8945C117.342 70.8125 117.549 70.7715 117.78 70.7715C118.012 70.7715 118.219 70.8125 118.401 70.8945C118.584 70.9746 118.74 71.0879 118.867 71.2344C118.994 71.3789 119.09 71.5498 119.157 71.7471C119.223 71.9424 119.256 72.1543 119.256 72.3828V72.4502C119.256 72.6787 119.223 72.8906 119.157 73.0859C119.09 73.2812 118.994 73.4521 118.867 73.5986C118.74 73.7432 118.585 73.8564 118.404 73.9385C118.222 74.0186 118.016 74.0586 117.786 74.0586C117.553 74.0586 117.345 74.0186 117.162 73.9385C116.98 73.8564 116.826 73.7432 116.699 73.5986C116.572 73.4521 116.475 73.2812 116.409 73.0859C116.342 72.8906 116.309 72.6787 116.309 72.4502ZM117.015 72.3828V72.4502C117.015 72.5928 117.03 72.7275 117.059 72.8545C117.088 72.9814 117.134 73.0928 117.197 73.1885C117.259 73.2842 117.339 73.3594 117.437 73.4141C117.535 73.4688 117.651 73.4961 117.786 73.4961C117.917 73.4961 118.03 73.4688 118.125 73.4141C118.223 73.3594 118.303 73.2842 118.366 73.1885C118.428 73.0928 118.474 72.9814 118.503 72.8545C118.535 72.7275 118.55 72.5928 118.55 72.4502V72.3828C118.55 72.2422 118.535 72.1094 118.503 71.9844C118.474 71.8574 118.427 71.7451 118.363 71.6475C118.3 71.5498 118.22 71.4736 118.123 71.4189C118.027 71.3623 117.913 71.334 117.78 71.334C117.647 71.334 117.532 71.3623 117.434 71.4189C117.338 71.4736 117.259 71.5498 117.197 71.6475C117.134 71.7451 117.088 71.8574 117.059 71.9844C117.03 72.1094 117.015 72.2422 117.015 72.3828ZM120.557 71.4336V74H119.851V70.8301H120.525L120.557 71.4336ZM121.527 70.8096L121.521 71.4658C121.478 71.458 121.431 71.4521 121.38 71.4482C121.332 71.4443 121.283 71.4424 121.234 71.4424C121.113 71.4424 121.006 71.46 120.915 71.4951C120.823 71.5283 120.746 71.5771 120.683 71.6416C120.623 71.7041 120.576 71.7803 120.542 71.8701C120.509 71.96 120.49 72.0605 120.484 72.1719L120.323 72.1836C120.323 71.9844 120.342 71.7998 120.381 71.6299C120.42 71.46 120.479 71.3105 120.557 71.1816C120.637 71.0527 120.737 70.9521 120.856 70.8799C120.977 70.8076 121.117 70.7715 121.275 70.7715C121.318 70.7715 121.364 70.7754 121.413 70.7832C121.463 70.791 121.501 70.7998 121.527 70.8096ZM123.844 73.3438V69.5H124.553V74H123.912L123.844 73.3438ZM121.782 72.4502V72.3887C121.782 72.1484 121.81 71.9297 121.867 71.7324C121.923 71.5332 122.005 71.3623 122.113 71.2197C122.22 71.0752 122.351 70.9648 122.505 70.8887C122.66 70.8105 122.833 70.7715 123.027 70.7715C123.218 70.7715 123.386 70.8086 123.531 70.8828C123.675 70.957 123.798 71.0635 123.9 71.2021C124.001 71.3389 124.083 71.5029 124.143 71.6943C124.204 71.8838 124.247 72.0947 124.272 72.3271V72.5234C124.247 72.75 124.204 72.957 124.143 73.1445C124.083 73.332 124.001 73.4941 123.9 73.6309C123.798 73.7676 123.674 73.873 123.528 73.9473C123.383 74.0215 123.214 74.0586 123.021 74.0586C122.83 74.0586 122.657 74.0186 122.502 73.9385C122.35 73.8584 122.22 73.7461 122.113 73.6016C122.005 73.457 121.923 73.2871 121.867 73.0918C121.81 72.8945 121.782 72.6807 121.782 72.4502ZM122.488 72.3887V72.4502C122.488 72.5947 122.5 72.7295 122.526 72.8545C122.553 72.9795 122.595 73.0898 122.652 73.1855C122.708 73.2793 122.782 73.3535 122.872 73.4082C122.963 73.4609 123.073 73.4873 123.2 73.4873C123.36 73.4873 123.492 73.4521 123.595 73.3818C123.699 73.3115 123.78 73.2168 123.838 73.0977C123.899 72.9766 123.94 72.8418 123.961 72.6934V72.1631C123.95 72.0479 123.925 71.9404 123.888 71.8408C123.853 71.7412 123.805 71.6543 123.745 71.5801C123.684 71.5039 123.609 71.4453 123.519 71.4043C123.431 71.3613 123.327 71.3398 123.206 71.3398C123.077 71.3398 122.967 71.3672 122.877 71.4219C122.788 71.4766 122.713 71.5518 122.655 71.6475C122.598 71.7432 122.556 71.8545 122.529 71.9814C122.501 72.1084 122.488 72.2441 122.488 72.3887Z" fill="white"/>
<path d="M142.181 70.0742C142.181 70.0742 142.59 72.3253 142.181 73.348C142.181 73.348 141.253 74.1651 142.943 74.4735C142.943 74.4735 144.635 74.882 146.066 74.4735L144.429 67.5175L142.181 70.0742Z" fill="#F7A48B"/>
<path opacity="0.2" d="M155.924 100.263C155.426 100.582 153.636 100.677 152.371 100.706C151.688 100.726 151.007 100.612 150.368 100.371C149.902 100.179 149.397 100.106 148.897 100.156C148.396 100.206 147.915 100.378 147.497 100.658C142.241 105.69 139.471 103.257 139.471 103.257C138.253 102.606 136.946 102.138 135.591 101.868C135.529 101.855 135.469 101.831 135.416 101.795C135.364 101.759 135.319 101.713 135.284 101.659C135.249 101.606 135.226 101.546 135.215 101.483C135.204 101.42 135.205 101.356 135.219 101.293L137.028 93.4754C135.23 94.2161 133.912 93.6731 132.979 92.7742C132.979 92.7742 135.33 93.8286 136.914 88.2933C136.914 88.2933 138.556 83.0796 138.894 80.876C138.894 80.876 139.347 86.5905 138.385 90.5443C138.108 91.6526 137.932 92.7835 137.858 93.9235L137.608 98.1092C137.593 98.3965 137.687 98.6788 137.871 98.9C138.53 99.6907 140.375 101.22 143.586 98.8472C143.586 98.8472 144.827 97.5451 147.484 98.1092C147.484 98.1092 153.707 98.4492 154.78 95.9056L155.924 100.263Z" fill="black"/>
<path opacity="0.2" d="M157.706 92.3578L157.284 93.0721C157.035 93.6718 156.698 94.2306 156.283 94.73L156.251 94.7617C155.826 95.2087 155.337 95.5914 154.801 95.8977C154.24 93.7205 153.502 84.0812 153.502 84.0812H154.124C154.698 85.9784 155.416 87.8289 156.272 89.6165C156.741 90.597 157.226 91.5011 157.711 92.3419L157.706 92.3578Z" fill="black"/>
<path opacity="0.2" d="M131.21 89.7588C131.21 89.7588 131.171 87.6871 132.075 86.7645C132.134 86.7057 132.205 86.6598 132.283 86.6299C132.361 86.5999 132.445 86.5865 132.528 86.5904C132.612 86.5944 132.694 86.6157 132.768 86.6529C132.843 86.6901 132.91 86.7425 132.963 86.8067L134.21 88.2854L133.609 84.9958C133.609 84.9958 130.799 85.5467 131.21 89.7588Z" fill="black"/>
<path d="M131.11 89.4029L124.948 79.1231C124.948 79.1231 123.421 77.5416 123.253 79.1231C123.253 79.1231 122.707 79.5686 122.776 78.0055C122.783 77.8026 122.739 77.6012 122.647 77.4203C122.504 77.133 122.404 76.6164 123.081 76.1261C123.182 75.8958 123.234 75.6473 123.234 75.396C123.234 75.1447 123.182 74.8962 123.081 74.6659C123.081 74.6659 122.459 73.2425 124.948 73.1871L122.148 70.1427C122.1 70.0904 122.064 70.0285 122.042 69.9611C122.02 69.8938 122.012 69.8225 122.02 69.752C122.027 69.6814 122.05 69.6133 122.086 69.5521C122.121 69.4908 122.17 69.4379 122.227 69.3968C122.321 69.3301 122.435 69.2976 122.549 69.3048C122.664 69.312 122.773 69.3584 122.857 69.4363L126.118 72.4386C126.319 72.6215 126.45 72.8683 126.49 73.1371C126.646 74.3275 126.887 75.5053 127.212 76.6612C127.301 76.9245 127.449 77.1642 127.644 77.3623L133.622 83.4116L133.604 84.9931C133.604 84.9931 131.11 85.6152 131.11 89.4029Z" fill="#F9B499"/>
<path d="M146.006 67.7336C146.979 65.4155 146.396 62.9603 144.703 62.2499C143.01 61.5394 140.849 62.8427 139.876 65.1608C138.903 67.4789 139.487 69.9341 141.179 70.6446C142.872 71.3551 145.033 70.0518 146.006 67.7336Z" fill="#F9B499"/>
<path d="M141.917 62.6253C141.917 62.6253 140.23 64.2542 143.936 65.3903C144.327 65.5066 144.662 65.7608 144.879 66.1055C145.096 66.4502 145.181 66.862 145.117 67.2644C144.983 67.9697 144.737 68.6488 144.387 69.2756C143.937 70.0792 143.767 71.0095 143.903 71.9204C144.04 72.8312 144.475 73.6709 145.141 74.3074C145.141 74.3074 146.514 75.7782 145.141 77.4177C145.141 77.4177 141.05 81.8987 146.535 83.7438C147.601 84.0633 148.72 84.162 149.825 84.0337C149.825 84.0337 148.865 82.6183 149.316 81.6614C149.316 81.6614 151.069 84.9404 155.423 83.865C155.423 83.865 158.897 83.2535 159.034 81.3689C159.048 81.0958 158.991 80.824 158.87 80.579C158.748 80.3341 158.566 80.1242 158.341 79.9692C157.616 79.4421 156.288 78.3218 157.176 77.4757C157.176 77.4757 161.531 71.8271 153.728 71.089C153.728 71.089 150.565 70.4011 152.708 67.5201C152.708 67.5201 155.281 63.2184 150.291 62.6279C150.291 62.6279 151.522 59.4939 146.601 59.8893C146.601 59.8893 139.028 59.0669 140.438 64.1066C140.433 64.1119 141.071 63.0391 141.917 62.6253Z" fill="#2F2E41"/>
<path d="M152.363 155.961L151.119 153.246C151.119 153.246 145.689 153.246 143.768 156.865C143.768 156.865 145.465 159.635 143.201 162.632C143.201 162.632 142.062 164.427 140.541 165.455C139.944 165.847 139.247 166.059 138.533 166.067C137.71 166.083 136.35 166.236 135.852 167.042C136.48 167.107 137.099 167.242 137.697 167.445C138.055 167.591 138.439 167.664 138.825 167.659C140.612 167.659 144.806 167.047 146.469 161.557C146.482 161.557 147.782 156.412 152.363 155.961Z" fill="#3E79F7"/>
<path d="M167.261 148.62C167.261 148.62 169.681 150.244 169.019 153.61C169.019 153.61 167.749 158.246 165.432 159.019C165.432 159.019 163.059 159.846 163.444 160.729C164.291 160.378 165.175 160.126 166.08 159.978C167.309 159.755 168.433 159.14 169.283 158.225C170.33 157.08 170.977 155.626 171.128 154.082C171.146 153.86 171.146 153.637 171.128 153.415C171.044 151.981 170.941 145.932 175.082 144.669L173.028 142.65C173.028 142.65 167.822 143.578 167.261 148.62Z" fill="#3E79F7"/>
</svg>
