<svg width="140" height="90" viewBox="0 0 140 90" fill="none" xmlns="http://www.w3.org/2000/svg">
<g clip-path="url(#clip0_3329_9353)">
<path d="M72.9297 89.2399C94.9594 89.2399 112.825 70.6774 112.825 47.7558C112.825 24.834 94.9594 6.27148 72.9297 6.27148C50.8999 6.27148 33.0342 24.834 33.0342 47.7558C33.0342 70.6774 50.8999 89.2399 72.9297 89.2399Z" fill="#F1F3F9"/>
<path d="M103.489 42.3418V67.7246C103.489 72.9978 99.3924 77.2868 94.2879 77.2868H51.7059C46.6686 77.2868 42.5716 73.0681 42.5044 67.7949C42.5044 67.7246 42.5044 67.7246 42.5044 67.6543V42.3418C42.5044 42.2715 42.5044 42.2715 42.5044 42.2012C42.5044 42.0605 42.5044 41.9199 42.5716 41.7793C42.6387 41.5684 42.7059 41.4277 42.7731 41.2168L54.191 18.3652C54.5939 17.4512 55.4671 16.959 56.4074 16.959H89.5193C90.4596 16.959 91.2656 17.4512 91.7357 18.3652L103.154 41.2168C103.221 41.3574 103.288 41.5684 103.355 41.7793C103.489 41.9199 103.489 42.1309 103.489 42.3418Z" fill="#F1F3F9" stroke="#D6DCE8" stroke-width="2" stroke-miterlimit="10"/>
<path d="M89.5977 7.72485C90.4742 17.7424 90.9125 20.0365 88.9279 29.1088C88.2825 31.1257 87.6371 33.3347 86.2542 34.8715C84.318 37.2726 80.8144 38.3291 77.9562 37.5607C75.0059 36.7923 72.6088 34.1031 72.0555 30.8376C71.5946 28.8206 72.24 26.4195 73.8995 25.1709C75.6513 24.0184 78.1407 24.3065 79.6159 25.7471C81.2754 27.1878 81.9208 29.3969 81.8286 31.5099C81.7364 33.6228 80.9988 35.7359 79.9847 37.5607C77.692 42.0478 76.7482 42.0313 72.0556 49.4008" stroke="#B3BCCE" stroke-width="2" stroke-miterlimit="10" stroke-dasharray="4 4"/>
<path d="M94.7377 3.99374C94.3871 5.33235 92.9854 5.81912 91.5837 4.96728C90.0651 4.23713 89.0137 3.62867 89.2474 2.41175C89.5977 1.19483 90.9996 1.07314 92.6348 0.951454C94.6208 0.708067 94.9714 2.65513 94.7377 3.99374Z" fill="#DAE2EB"/>
<path d="M83.4069 5.21064C83.9909 6.30586 85.6264 7.03602 86.7946 5.94078C88.0796 4.72387 89.1309 3.87203 88.5469 2.65511C87.9628 1.55988 87.0282 1.92496 85.0423 2.16834C83.4069 2.53342 82.706 3.99372 83.4069 5.21064Z" fill="#DAE2EB"/>
<path d="M88.5464 0.70809C89.3641 0.586396 90.1818 1.07317 90.4154 1.80331C90.5323 2.0467 90.6491 2.41177 90.6491 2.65516C90.8827 4.35884 90.2986 5.81914 89.3641 5.94083C88.3127 6.18422 87.2613 4.9673 87.1445 3.38531C87.1445 2.89854 87.1445 2.65516 87.1445 2.29008C87.2613 1.43824 87.7287 0.82978 88.5464 0.70809C88.5464 0.70809 88.6632 0.70809 88.5464 0.70809Z" fill="#989FB0"/>
<path d="M103.489 42.3418V70.3259C103.489 74.1931 100.534 77.2868 96.773 77.2868H49.2208C45.5268 77.2868 42.5044 74.1931 42.5044 70.3259V42.2012C42.5044 42.0605 42.5044 41.9199 42.5716 41.7793H57.885C60.1686 41.7793 62.0492 43.6777 62.0492 46.1387C62.0492 47.334 62.5193 48.459 63.2581 49.2324C64.0641 50.0762 65.0044 50.498 66.2134 50.498H79.8477C82.1313 50.498 84.0119 48.5996 84.0119 46.1387C84.0119 44.9434 84.482 43.8184 85.2208 43.0449C86.0268 42.2012 86.9671 41.7793 88.1089 41.7793H103.355C103.489 41.9199 103.489 42.1309 103.489 42.3418Z" fill="white" stroke="#D6DCE8" stroke-width="2" stroke-miterlimit="10"/>
<path d="M65.3339 59.8916C66.185 59.8916 66.8749 59.1694 66.8749 58.2785C66.8749 57.3875 66.185 56.6653 65.3339 56.6653C64.4829 56.6653 63.793 57.3875 63.793 58.2785C63.793 59.1694 64.4829 59.8916 65.3339 59.8916Z" fill="#989FB0"/>
<path d="M80.6601 59.8916C81.5111 59.8916 82.201 59.1694 82.201 58.2785C82.201 57.3875 81.5111 56.6653 80.6601 56.6653C79.809 56.6653 79.1191 57.3875 79.1191 58.2785C79.1191 59.1694 79.809 59.8916 80.6601 59.8916Z" fill="#989FB0"/>
<path d="M75.496 70.4861H70.6649C69.9152 70.4861 69.2905 69.8322 69.2905 69.0474C69.2905 68.2626 69.9152 67.6086 70.6649 67.6086H75.4543C76.2039 67.6086 76.8287 68.2626 76.8287 69.0474C76.8703 69.8322 76.2456 70.4861 75.496 70.4861Z" fill="#989FB0"/>
<path d="M111.805 27.9277C113.327 27.9277 114.559 26.6371 114.559 25.0449C114.559 23.4528 113.327 22.1621 111.805 22.1621C110.285 22.1621 109.052 23.4528 109.052 25.0449C109.052 26.6371 110.285 27.9277 111.805 27.9277Z" fill="#F1F3F9"/>
<path d="M109.052 18.5762C110.091 18.5762 110.933 17.6947 110.933 16.6074C110.933 15.5201 110.091 14.6387 109.052 14.6387C108.014 14.6387 107.171 15.5201 107.171 16.6074C107.171 17.6947 108.014 18.5762 109.052 18.5762Z" fill="#F1F3F9"/>
<path d="M32.8879 25.0449C33.9265 25.0449 34.7685 24.1635 34.7685 23.0762C34.7685 21.9889 33.9265 21.1074 32.8879 21.1074C31.8493 21.1074 31.0073 21.9889 31.0073 23.0762C31.0073 24.1635 31.8493 25.0449 32.8879 25.0449Z" fill="#F1F3F9"/>
<path d="M28.6566 68.3574C30.5855 68.3574 32.1491 66.7205 32.1491 64.7012C32.1491 62.6819 30.5855 61.0449 28.6566 61.0449C26.7277 61.0449 25.1641 62.6819 25.1641 64.7012C25.1641 66.7205 26.7277 68.3574 28.6566 68.3574Z" fill="#F1F3F9"/>
</g>
<defs>
<clipPath id="clip0_3329_9353">
<rect width="90" height="90" fill="white" transform="translate(25)"/>
</clipPath>
</defs>
</svg>
